HIERARCHY
ROOT joint_Root
{
	OFFSET 0.0 0.0 0.0
	CHANNELS 6 Xposition Yposition Zposition Zrotation Xrotation Yrotation 
	JOINT Hips
	{
		OFFSET -17.1583 93.1646 452.98
		CHANNELS 6 Xposition Yposition Zposition Zrotation Xrotation Yrotation 
		JOINT Spine
		{
			OFFSET 15.7357 0.0 0.0
			CHANNELS 6 Xposition Yposition Zposition Zrotation Xrotation Yrotation 
			JOINT Chest
			{
				OFFSET 8.98455 -0.406207 0.0
				CHANNELS 6 Xposition Yposition Zposition Zrotation Xrotation Yrotation 
				JOINT Neck
				{
					OFFSET 16.3773 0.0 0.0
					CHANNELS 6 Xposition Yposition Zposition Zrotation Xrotation Yrotation 
					JOINT Head
					{
						OFFSET 6.45672 0.0 0.0
						CHANNELS 6 Xposition Yposition Zposition Zrotation Xrotation Yrotation 
						End Site
						{
							OFFSET 0.0 0.0 0.0
						}
					}
				}
				JOINT Shoulder_L
				{
					OFFSET 12.9942 -0.242716 4.98039
					CHANNELS 6 Xposition Yposition Zposition Zrotation Xrotation Yrotation 
					JOINT UpperArm_L
					{
						OFFSET 5.34809 0.0 0.0
						CHANNELS 6 Xposition Yposition Zposition Zrotation Xrotation Yrotation 
						JOINT LowerArm_L
						{
							OFFSET 24.3286 1.87007e-05 0.0
							CHANNELS 6 Xposition Yposition Zposition Zrotation Xrotation Yrotation 
							JOINT Hand_L
							{
								OFFSET 22.2916 0.0 0.0
								CHANNELS 6 Xposition Yposition Zposition Zrotation Xrotation Yrotation 
								End Site
								{
									OFFSET 0.0 0.0 0.0
								}
							}
						}
					}
				}
				JOINT Shoulder_R
				{
					OFFSET 12.9945 -0.242716 -4.98039
					CHANNELS 6 Xposition Yposition Zposition Zrotation Xrotation Yrotation 
					JOINT UpperArm_R
					{
						OFFSET -5.34813 0.0 0.0
						CHANNELS 6 Xposition Yposition Zposition Zrotation Xrotation Yrotation 
						JOINT LowerArm_R
						{
							OFFSET -24.3289 0.000322201 0.0
							CHANNELS 6 Xposition Yposition Zposition Zrotation Xrotation Yrotation 
							JOINT Hand_R
							{
								OFFSET -22.2915 -0.000108084 0.0
								CHANNELS 6 Xposition Yposition Zposition Zrotation Xrotation Yrotation 
								End Site
								{
									OFFSET 0.0 0.0 0.0
								}
							}
						}
					}
				}
			}
		}
		JOINT UpperLeg_L
		{
			OFFSET -2.19248 -6.46944 0.0
			CHANNELS 6 Xposition Yposition Zposition Zrotation Xrotation Yrotation 
			JOINT LowerLeg_L
			{
				OFFSET 39.0811 0.0 -1.23785e-05
				CHANNELS 6 Xposition Yposition Zposition Zrotation Xrotation Yrotation 
				JOINT Foot_L
				{
					OFFSET 40.9854 0.0 -1.26872e-05
					CHANNELS 6 Xposition Yposition Zposition Zrotation Xrotation Yrotation 
					JOINT Toes_L
					{
						OFFSET 11.7543 0.0 0.0
						CHANNELS 6 Xposition Yposition Zposition Zrotation Xrotation Yrotation 
						End Site
						{
							OFFSET 0.0 0.0 0.0
						}
					}
				}
			}
		}
		JOINT UpperLeg_R
		{
			OFFSET -2.19251 6.46944 0.0
			CHANNELS 6 Xposition Yposition Zposition Zrotation Xrotation Yrotation 
			JOINT LowerLeg_R
			{
				OFFSET -39.0811 -0.00228153 -0.0401928
				CHANNELS 6 Xposition Yposition Zposition Zrotation Xrotation Yrotation 
				JOINT Foot_R
				{
					OFFSET -40.9854 0.0 0.0
					CHANNELS 6 Xposition Yposition Zposition Zrotation Xrotation Yrotation 
					JOINT Toes_R
					{
						OFFSET -11.7543 0.0 0.0
						CHANNELS 6 Xposition Yposition Zposition Zrotation Xrotation Yrotation 
						End Site
						{
							OFFSET 0.0 0.0 0.0
						}
					}
				}
			}
		}
	}
}
MOTION
Frames:	4
Frame Time:	0.0333333
0.000000 0.000000 0.000000 0.000000 0.000000 -0.000000 -3.774780 91.678500 -1.224650 83.976800 0.110721 7.572890 15.735700 0.000005 -0.000001 73.214200 86.371400 -71.509200 8.984550 -0.406207 -0.000000 -0.782691 -2.222530 3.393610 16.377300 -0.000001 -0.000001 12.190500 3.622080 4.907280 6.456720 -0.000001 -0.000000 -6.061420 3.216680 16.143800 12.994200 -0.242716 4.980390 -92.853300 7.841400 -69.931700 5.348090 -0.000007 -0.000001 -72.026900 26.114900 0.452847 24.328600 0.000019 0.000005 10.957200 27.073100 -23.044200 22.291600 -0.000001 0.000005 -1.939840 4.977710 7.789910 12.994500 -0.242716 -4.980390 87.016900 7.080490 -67.082600 -5.348130 -0.000001 -0.000004 -69.339000 -0.940501 -13.665500 -24.328900 0.000322 -0.000009 11.907400 -14.582100 -140.051000 -22.291500 -0.000108 -0.000004 47.524100 5.679430 -19.385400 -2.192480 -6.469440 -0.000000 -172.846000 7.708070 -1.433310 39.081100 -0.000007 -0.000012 0.407106 -0.710221 29.822800 40.985400 -0.000006 -0.000013 -1.300060 1.319030 -76.743000 11.754300 -0.000000 0.000003 0.000422 0.160188 -10.080000 -2.192510 6.469440 -0.000001 -170.291000 9.624920 -174.139000 -39.081100 -0.002282 -0.040193 0.149896 -0.474553 17.163900 -40.985400 0.000008 0.000006 6.143960 3.277040 -72.020300 -11.754300 -0.000006 -0.000006 -0.010861 0.277629 -5.292260
0.000000 0.000000 0.000000 0.000000 0.000000 -0.000000 -3.759800 91.682700 -1.260810 83.977500 0.093849 7.563070 15.735700 0.000005 -0.000001 73.319100 86.358100 -71.618400 8.984550 -0.406207 -0.000000 -0.753430 -2.216720 3.385540 16.377300 -0.000001 -0.000001 12.176600 3.717360 4.709970 6.456720 -0.000001 -0.000000 -6.018440 3.359090 15.901500 12.994200 -0.242716 4.980390 -92.877900 7.891450 -69.889600 5.348090 -0.000007 -0.000001 -72.007700 26.073900 0.438020 24.328600 0.000019 0.000005 10.883400 26.970400 -22.973800 22.291600 -0.000001 0.000005 -1.955970 4.982280 7.694170 12.994500 -0.242716 -4.980390 87.014400 7.076990 -67.055300 -5.348130 -0.000001 -0.000004 -69.305100 -0.918530 -13.782000 -24.328900 0.000322 -0.000009 11.807700 -14.469000 -140.080000 -22.291500 -0.000108 -0.000004 47.210700 5.678990 -19.243700 -2.192480 -6.469440 -0.000000 -172.843000 7.654530 -1.455870 39.081100 -0.000007 -0.000012 0.407123 -0.710410 29.817200 40.985400 -0.000006 -0.000013 -1.278800 1.363140 -76.725900 11.754300 -0.000000 0.000003 0.000354 0.161434 -10.029400 -2.192510 6.469440 -0.000001 -170.304000 9.634820 -174.174000 -39.081100 -0.002282 -0.040193 0.150269 -0.475409 17.175900 -40.985400 0.000008 0.000006 6.170430 3.302850 -72.035600 -11.754300 -0.000006 -0.000006 -0.011268 0.280548 -5.172780
0.000000 0.000000 0.000000 0.000000 0.000000 -0.000000 -3.736450 91.687900 -1.276700 83.965200 0.104859 7.573860 15.735700 0.000005 -0.000001 73.471000 86.333900 -71.784300 8.984550 -0.406207 -0.000000 -0.701875 -2.210180 3.358520 16.377300 -0.000001 -0.000001 12.189200 3.746010 4.568370 6.456720 -0.000001 -0.000000 -5.983440 3.480660 15.738800 12.994200 -0.242716 4.980390 -92.877300 7.899090 -69.911400 5.348090 -0.000007 -0.000001 -72.030500 25.926300 0.432164 24.328600 0.000019 0.000005 10.948200 27.100300 -23.007600 22.291600 -0.000001 0.000005 -2.012680 4.976100 7.823530 12.994500 -0.242716 -4.980390 87.013000 7.090610 -67.085300 -5.348130 -0.000001 -0.000004 -69.246200 -0.987640 -13.794700 -24.328900 0.000322 -0.000009 11.759700 -14.396100 -140.059000 -22.291500 -0.000108 -0.000004 47.108200 5.678830 -19.201500 -2.192480 -6.469440 -0.000000 -172.851000 7.649170 -1.464970 39.081100 -0.000007 -0.000012 0.411227 -0.717500 29.819700 40.985400 -0.000006 -0.000013 -1.253940 1.384980 -76.716100 11.754300 -0.000000 0.000003 0.000341 0.161674 -10.019700 -2.192510 6.469440 -0.000001 -170.298000 9.561860 -174.195000 -39.081100 -0.002282 -0.040193 0.148642 -0.469608 17.194300 -40.985400 0.000008 0.000006 6.064930 3.250700 -71.980200 -11.754300 -0.000006 -0.000006 -0.011021 0.278784 -5.244970
0.000000 0.000000 0.000000 0.000000 0.000000 -0.000000 -3.715320 91.694200 -1.315500 83.978100 0.168912 7.575230 15.735700 0.000005 -0.000001 73.271500 86.315000 -71.599200 8.984550 -0.406207 -0.000000 -0.672945 -2.244000 3.330170 16.377300 -0.000001 -0.000001 12.197200 3.755990 4.495300 6.456720 -0.000001 -0.000000 -5.935370 3.532830 15.537500 12.994200 -0.242716 4.980390 -92.897800 7.930430 -69.853100 5.348090 -0.000007 -0.000001 -72.034800 26.001700 0.431484 24.328600 0.000019 0.000005 10.948200 27.127900 -22.988400 22.291600 -0.000001 0.000005 -1.931770 4.978600 7.771240 12.994500 -0.242716 -4.980390 87.004700 7.096370 -67.044700 -5.348130 -0.000001 -0.000004 -69.163000 -0.995673 -13.810800 -24.328900 0.000322 -0.000009 11.734600 -14.310100 -139.956000 -22.291500 -0.000108 -0.000004 46.941100 5.678590 -19.122700 -2.192480 -6.469440 -0.000000 -172.873000 7.682530 -1.505020 39.081100 -0.000007 -0.000012 0.405778 -0.708279 29.809700 40.985400 -0.000006 -0.000013 -1.244720 1.381340 -76.662800 11.754300 -0.000000 0.000003 0.000355 0.161410 -10.030400 -2.192510 6.469440 -0.000001 -170.315000 9.586970 -174.224000 -39.081100 -0.002282 -0.040193 0.148668 -0.469756 17.192100 -40.985400 0.000008 0.000006 6.053130 3.206120 -71.962200 -11.754300 -0.000006 -0.000006 -0.010694 0.276422 -5.341630
